<svg viewBox="0 0 32 32" fill="none" xmlns="http://www.w3.org/2000/svg">
<circle cx="16" cy="16" r="15.25" fill="#14181B" stroke="url(#paint0_linear_2833_2000)" stroke-width="1.5"/>
<path d="M15.569 8.25266C15.7623 7.92401 16.2376 7.92401 16.4309 8.25266L23.5568 20.3665C23.7528 20.6998 23.5125 21.12 23.1258 21.12H21.4908C21.3136 21.12 21.1497 21.0262 21.0598 20.8735L16.433 13.008C16.2404 12.6806 15.7675 12.6791 15.5727 13.0053L12.6334 17.9294C12.4344 18.2626 12.6745 18.6856 13.0627 18.6856H16.684C16.8607 18.6856 17.0243 18.7789 17.1143 18.931L17.9631 20.3654C18.1603 20.6987 17.9201 21.12 17.5328 21.12H8.87421C8.4875 21.12 8.24717 20.6998 8.44324 20.3665L15.569 8.25266Z" fill="url(#paint1_linear_2833_2000)"/>
<defs>
<linearGradient id="paint0_linear_2833_2000" x1="16" y1="-1.33808" x2="16" y2="33.2242" gradientUnits="userSpaceOnUse">
<stop stop-color="#FF9796"/>
<stop offset="0.338542" stop-color="#DCEC79"/>
<stop offset="0.609375" stop-color="#54F8D0"/>
<stop offset="0.786458" stop-color="#67BEE5"/>
<stop offset="1" stop-color="#965CFD"/>
</linearGradient>
<linearGradient id="paint1_linear_2833_2000" x1="19.7185" y1="13.4565" x2="8.87207" y2="20.7828" gradientUnits="userSpaceOnUse">
<stop stop-color="#FF9595"/>
<stop offset="0.265625" stop-color="#FFEF5E"/>
<stop offset="0.515625" stop-color="#87FF4F"/>
<stop offset="0.770833" stop-color="#42FFDD"/>
<stop offset="1" stop-color="#9B4DFF"/>
</linearGradient>
</defs>
</svg>
